<?xml version="1.0" encoding="UTF-8" standalone="no"?>
<!-- Created with Inkscape (http://www.inkscape.org/) -->

<svg
   xmlns:dc="http://purl.org/dc/elements/1.1/"
   xmlns:cc="http://creativecommons.org/ns#"
   xmlns:rdf="http://www.w3.org/1999/02/22-rdf-syntax-ns#"
   xmlns:svg="http://www.w3.org/2000/svg"
   xmlns="http://www.w3.org/2000/svg"
   xmlns:sodipodi="http://sodipodi.sourceforge.net/DTD/sodipodi-0.dtd"
   xmlns:inkscape="http://www.inkscape.org/namespaces/inkscape"
   id="svg3336"
   version="1.1"
   inkscape:version="0.91 r13725"
   width="2702.511"
   height="2535.9949"
   viewBox="0 0 2702.511 2535.9949"
   sodipodi:docname="_terrible_artist_tuesday__.svg">
  <metadata
     id="metadata3342">
    <rdf:RDF>
      <cc:Work
         rdf:about="">
        <dc:format>image/svg+xml</dc:format>
        <dc:type
           rdf:resource="http://purl.org/dc/dcmitype/StillImage" />
        <dc:title></dc:title>
      </cc:Work>
    </rdf:RDF>
  </metadata>
  <defs
     id="defs3340">
    <inkscape:path-effect
       effect="skeletal"
       id="path-effect4169"
       is_visible="true"
       pattern="M 0,5 C 0,2.24 2.24,0 5,0 7.76,0 10,2.24 10,5 10,7.76 7.76,10 5,10 2.24,10 0,7.76 0,5 Z"
       copytype="single_stretched"
       prop_scale="1"
       scale_y_rel="false"
       spacing="0"
       normal_offset="0"
       tang_offset="0"
       prop_units="false"
       vertical_pattern="false"
       fuse_tolerance="0" />
    <inkscape:path-effect
       effect="skeletal"
       id="path-effect4165"
       is_visible="true"
       pattern="M 0,5 C 0,2.24 2.24,0 5,0 7.76,0 10,2.24 10,5 10,7.76 7.76,10 5,10 2.24,10 0,7.76 0,5 Z"
       copytype="single_stretched"
       prop_scale="1"
       scale_y_rel="false"
       spacing="0"
       normal_offset="0"
       tang_offset="0"
       prop_units="false"
       vertical_pattern="false"
       fuse_tolerance="0" />
    <inkscape:path-effect
       effect="skeletal"
       id="path-effect4239"
       is_visible="true"
       pattern="M 0,5 C 0,2.24 2.24,0 5,0 7.76,0 10,2.24 10,5 10,7.76 7.76,10 5,10 2.24,10 0,7.76 0,5 Z"
       copytype="single_stretched"
       prop_scale="1"
       scale_y_rel="false"
       spacing="0"
       normal_offset="0"
       tang_offset="0"
       prop_units="false"
       vertical_pattern="false"
       fuse_tolerance="0" />
    <inkscape:path-effect
       effect="skeletal"
       id="path-effect4220"
       is_visible="true"
       pattern="m -0.76403487,5.3820174 c 0,-2.76 2.23999997,-4.99999996 4.99999997,-4.99999996 2.76,0 5,2.23999996 5,4.99999996 0,2.76 -2.24,4.9999996 -5,4.9999996 -2.76,0 -4.99999997,-2.2399996 -4.99999997,-4.9999996 z"
       copytype="single_stretched"
       prop_scale="1"
       scale_y_rel="false"
       spacing="0"
       normal_offset="0"
       tang_offset="0"
       prop_units="false"
       vertical_pattern="false"
       fuse_tolerance="0" />
    <inkscape:path-effect
       effect="skeletal"
       id="path-effect4201"
       is_visible="true"
       pattern="M 0,5 C 0,2.24 2.24,0 5,0 7.76,0 10,2.24 10,5 10,7.76 7.76,10 5,10 2.24,10 0,7.76 0,5 Z"
       copytype="single_stretched"
       prop_scale="1"
       scale_y_rel="false"
       spacing="0"
       normal_offset="0"
       tang_offset="0"
       prop_units="false"
       vertical_pattern="false"
       fuse_tolerance="0" />
    <inkscape:path-effect
       effect="skeletal"
       id="path-effect4182"
       is_visible="true"
       pattern="M 0,5 C 0,2.24 2.24,0 5,0 7.76,0 10,2.24 10,5 10,7.76 7.76,10 5,10 2.24,10 0,7.76 0,5 Z"
       copytype="single_stretched"
       prop_scale="1"
       scale_y_rel="false"
       spacing="0"
       normal_offset="0"
       tang_offset="0"
       prop_units="false"
       vertical_pattern="false"
       fuse_tolerance="0" />
    <inkscape:path-effect
       effect="skeletal"
       id="path-effect4178"
       is_visible="true"
       pattern="M 0,5 C 0,2.24 2.24,0 5,0 7.76,0 10,2.24 10,5 10,7.76 7.76,10 5,10 2.24,10 0,7.76 0,5 Z"
       copytype="single_stretched"
       prop_scale="1"
       scale_y_rel="false"
       spacing="0"
       normal_offset="0"
       tang_offset="0"
       prop_units="false"
       vertical_pattern="false"
       fuse_tolerance="0" />
    <inkscape:path-effect
       effect="skeletal"
       id="path-effect4174"
       is_visible="true"
       pattern="M 0,5 C 0,2.24 2.24,0 5,0 7.76,0 10,2.24 10,5 10,7.76 7.76,10 5,10 2.24,10 0,7.76 0,5 Z"
       copytype="single_stretched"
       prop_scale="1"
       scale_y_rel="false"
       spacing="0"
       normal_offset="0"
       tang_offset="0"
       prop_units="false"
       vertical_pattern="false"
       fuse_tolerance="0" />
  </defs>
  <sodipodi:namedview
     pagecolor="#ffffff"
     bordercolor="#666666"
     borderopacity="1"
     objecttolerance="10"
     gridtolerance="10"
     guidetolerance="10"
     inkscape:pageopacity="0"
     inkscape:pageshadow="2"
     inkscape:window-width="1810"
     inkscape:window-height="1047"
     id="namedview3338"
     showgrid="false"
     inkscape:zoom="0.23137255"
     inkscape:cx="1716.6309"
     inkscape:cy="1324.7047"
     inkscape:window-x="182"
     inkscape:window-y="182"
     inkscape:window-maximized="0"
     inkscape:current-layer="svg3336"
     fit-margin-top="0"
     fit-margin-left="0"
     fit-margin-right="0"
     fit-margin-bottom="0" />
  <path
     style="fill:#67d6ff;fill-opacity:1;fill-rule:evenodd;stroke:#000000;stroke-width:10;stroke-linecap:butt;stroke-linejoin:miter;stroke-miterlimit:4;stroke-dasharray:none;stroke-opacity:1"
     d="m 1560.2291,2226.6802 c -30.2181,38.868 -97.8855,-14.2069 -144.7881,-29.1737 -48.0777,-15.3418 -89.7337,-47.8905 -138.3051,-61.589 -39.8584,-11.2412 -81.7709,-15.4963 -123.178,-16.2076 -44.863,-0.7707 -89.6922,5.7821 -133.983,12.9661 -47.77918,7.7498 -93.88008,24.0001 -141.54661,32.4152 -51.47207,9.087 -103.39883,16.6757 -155.59322,19.4492 -59.35405,3.1539 -118.91522,-0.3762 -178.2839,-3.2415 -73.61453,-3.5529 -147.6013,-5.9472 -220.42372,-17.2882 -54.46936,-8.4828 -111.15088,-14.2729 -160.99577,-37.8177 -31.1347,-14.7068 -59.06573,-37.0917 -82.118638,-62.6695 -26.83927,-29.7789 -49.87229,-64.6567 -62.669491,-102.6483 -11.325894,-33.6236 -16.959464,-70.9478 -10.805085,-105.8899 6.314952,-35.8537 24.909946,-69.8106 47.542376,-98.3262 22.45007,-28.2859 52.113198,-51.6582 84.279658,-68.0721 28.24999,-14.4154 60.34572,-21.1406 91.84322,-24.8517 36.14315,-4.2585 72.92266,-0.418 109.13135,3.2416 35.64216,3.6023 70.25047,14.7387 105.88983,18.3686 34.41511,3.5052 69.4768,8.0877 103.72882,3.2415 35.97599,-5.0901 70.8602,-18.0091 103.72881,-33.4957 32.08579,-15.1178 61.32501,-35.9617 89.6822,-57.267 34.48354,-25.9081 65.91294,-55.719 97.24577,-85.3602 19.4269,-18.378 38.44643,-37.2557 56.18644,-57.2669 16.82848,-18.983 47.54238,-59.428 47.54238,-59.428 0,0 -18.453,54.73 -30.25425,81.0382 -8.83611,19.6981 -20.00006,38.2684 -30.25424,57.2669 -15.23673,28.2299 -29.02167,57.3553 -46.46186,84.2797 -17.40745,26.8739 -36.99042,52.3874 -57.80721,76.7161 -21.19623,24.7722 -44.97428,47.2235 -68.07203,70.233 -23.18954,23.1009 -47.67844,44.8765 -70.7733,68.0721 -15.09843,15.1643 -44.30085,46.4618 -44.30085,46.4618 0,0 81.28894,-21.5825 119.93644,-37.8178 33.87006,-14.2284 65.37385,-33.5939 97.24576,-51.8644 35.20939,-20.1837 70.32683,-40.6981 103.72882,-63.75 26.20682,-18.0862 53.10052,-35.8513 75.63562,-58.3474 19.98638,-19.9518 36.45738,-43.324 51.86438,-66.9916 19.4301,-29.8478 37.9002,-60.8013 50.7839,-94.0042 11.8185,-30.4578 18.2994,-62.8758 23.7712,-95.0847 11.8731,-69.8889 19.4491,-211.7797 19.4491,-211.7797 0,0 110.8968,355.3422 181.5254,527.2881 70.1444,170.7671 353.1845,353.4482 239.8729,499.1949 z"
     id="path4175"
     inkscape:connector-curvature="0"
     sodipodi:nodetypes="aaaaaaaaaaaaaaaaaaaaaaacaaaaaacaaaaaaacaa" />
  <path
     style="fill:#67d6ff;fill-opacity:1;fill-rule:evenodd;stroke:#000000;stroke-width:10;stroke-linecap:butt;stroke-linejoin:miter;stroke-miterlimit:4;stroke-dasharray:none;stroke-opacity:1"
     d="m 653.18067,1866.8484 31.83661,-152.3292 87.30206,98.86"
     id="path4179"
     inkscape:connector-curvature="0"
     sodipodi:nodetypes="ccc" />
  <path
     style="fill:#67d6ff;fill-opacity:1;fill-rule:evenodd;stroke:#000000;stroke-width:10;stroke-linecap:butt;stroke-linejoin:miter;stroke-miterlimit:4;stroke-dasharray:none;stroke-opacity:1"
     d="m 897.46169,1744.0525 -127.08425,-100.8468 65.91102,0 -75.63559,-130.7416 105.88983,74.5551 -19.44915,-85.3601 147.62517,171.8981"
     id="path4181"
     inkscape:connector-curvature="0"
     sodipodi:nodetypes="ccccccc" />
  <path
     style="fill:none;fill-rule:evenodd;stroke:#000000;stroke-width:10;stroke-linecap:butt;stroke-linejoin:miter;stroke-miterlimit:4;stroke-dasharray:none;stroke-opacity:1"
     d="m 1152.8774,1146.1718 c 0,0 -15.4891,120.3449 -23.7712,180.4449 -6.9048,50.1056 -6.7993,101.8286 -21.6101,150.1907 -11.6037,37.8898 -31.6522,72.8858 -51.8644,106.9703 -18.0457,30.4309 -36.8079,61.1902 -61.58898,86.4407 -26.6914,27.197 -60.0583,47.0524 -91.84324,68.072 -33.60922,22.226 -68.59022,42.429 -104.25184,61.186 -38.8221,20.4193 -78.01388,40.6526 -119.18944,55.7746 -35.43499,13.0138 -71.95753,23.9881 -109.25699,29.7973 -47.10058,7.3357 -95.33078,9.5575 -142.87452,6.1123 -29.99066,-2.1732 -63.18528,-0.7829 -88.62804,-16.8088 -9.09419,-5.7282 -20.35825,-15.303 -19.10087,-25.9771 1.01476,-8.6145 19.8649,-16.8088 19.8649,-16.8088"
     id="path4173"
     inkscape:connector-curvature="0"
     sodipodi:nodetypes="caaaaaaaaaaac" />
  <path
     style="fill:#67d6ff;fill-opacity:1;fill-rule:evenodd;stroke:#000000;stroke-width:5;stroke-linecap:butt;stroke-linejoin:miter;stroke-miterlimit:4;stroke-dasharray:none;stroke-opacity:1"
     d="m 1807.9581,103.6373 c 8e-4,-13.421517 -1.0498,-21.899667 -7.2602,-38.231447 -5.4749,-14.39773 -15.8809,-24.72132 -24.9545,-35.61372 -13.2893,-15.95312 -23.1572,-24.4138496 -33.6905,-1.28838 -11.7176,25.72555 -13.5927,35.50701 -17.2169,55.16023 -2.3431,12.70602 -3.8019,22.236427 -3.8728,32.435597 -0.1064,15.28477 30.2313,40.29901 47.6863,36.90857 17.4551,-3.39044 39.3077,-34.08571 39.3086,-49.37085 z"
     id="path4166-4"
     inkscape:connector-curvature="0"
     sodipodi:nodetypes="ssssssss" />
  <path
     style="fill:#ffffff;fill-opacity:1;fill-rule:evenodd;stroke:#000000;stroke-width:10;stroke-linecap:butt;stroke-linejoin:miter;stroke-miterlimit:4;stroke-dasharray:none;stroke-opacity:1"
     d="m 2329.5512,283.92597 c 0,0 60.1626,-30.7178 92.9237,-32.4153 40.6558,-2.1065 84.3028,6.5662 118.8559,28.0933 38.006,23.6783 64.019,64.363 85.3602,103.7288 19.4357,35.851 31.0876,76.3078 36.7373,116.6949 5.5406,39.6077 13.6768,83.6977 -3.2415,119.9364 -15.8668,33.9865 -163.1568,105.8898 -163.1568,105.8898"
     id="path4156"
     inkscape:connector-curvature="0"
     sodipodi:nodetypes="csssssc" />
  <path
     style="fill:#67d6ff;fill-opacity:1;fill-rule:evenodd;stroke:#000000;stroke-width:10;stroke-linecap:butt;stroke-linejoin:miter;stroke-miterlimit:4;stroke-dasharray:none;stroke-opacity:1"
     d="m 2289.3437,2250.257 c 0,0 17.9577,44.953 36.6737,74.8754 16.2357,25.9571 44.3286,56.8532 67.235,77.1675 45.8502,40.6617 81.0913,19.891 60.3588,-34.3815 -21.9273,-57.4002 -81.7517,-158.9193 -81.7517,-158.9193"
     id="path4154"
     inkscape:connector-curvature="0"
     sodipodi:nodetypes="csssc" />
  <path
     style="fill:#67d6ff;fill-opacity:1;fill-rule:evenodd;stroke:#000000;stroke-width:10;stroke-linecap:butt;stroke-linejoin:miter;stroke-miterlimit:4;stroke-dasharray:none;stroke-opacity:1"
     d="m 2527.994,1116.087 c 0,0 56.2318,62.269 79.4333,100.6998 23.2014,38.4308 44.9313,76.2336 54.9205,122.0975 15.7378,72.2579 -21.433,62.9298 -44.3009,46.0798 -22.8679,-16.85 -48.8891,-48.7733 -66.9915,-72.394 -18.1024,-23.6207 -36.5677,-61.5123 -36.5677,-61.5123"
     id="path4150"
     inkscape:connector-curvature="0"
     sodipodi:nodetypes="czszzc" />
  <path
     style="fill:#67d6ff;fill-opacity:1;fill-rule:evenodd;stroke:#000000;stroke-width:7.93750048;stroke-linecap:butt;stroke-linejoin:miter;stroke-miterlimit:4;stroke-dasharray:none;stroke-opacity:1"
     d="m 1484.1062,230.54907 -65.8849,-131.810317 47.1131,22.746687 -8.9436,-119.5565366 49.9599,89.8358096 15.5567,-67.7275 49.8226,190.722057"
     id="path4181-9-0-0-6-6-1"
     inkscape:connector-curvature="0" />
  <path
     style="fill:#67d6ff;fill-opacity:1;fill-rule:evenodd;stroke:#000000;stroke-width:9.53817368;stroke-linecap:butt;stroke-linejoin:miter;stroke-miterlimit:4;stroke-dasharray:none;stroke-opacity:1"
     d="m 1263.2757,343.61567 -106.0155,-141.8328 60.5651,16.8563 -36.0646,-139.480617 78.2343,95.588817 3.9587,-83.410867 99.5795,214.925867"
     id="path4181-9-0-0-6-6"
     inkscape:connector-curvature="0" />
  <path
     style="fill:#67d6ff;fill-opacity:1;fill-rule:evenodd;stroke:#000000;stroke-width:11.20349979;stroke-linecap:butt;stroke-linejoin:miter;stroke-miterlimit:4;stroke-dasharray:none;stroke-opacity:1"
     d="m 1089.8257,504.87977 -179.16493,-105.6445 73.26995,-9.1842 -102.2981,-134.7997 128.10108,68.1245 -33.51478,-92.1808 205.31908,187.7674"
     id="path4181-9-0-0-6"
     inkscape:connector-curvature="0" />
  <path
     style="fill:#67d6ff;fill-opacity:1;fill-rule:evenodd;stroke:#000000;stroke-width:13.16773033;stroke-linecap:butt;stroke-linejoin:miter;stroke-miterlimit:4;stroke-dasharray:none;stroke-opacity:1"
     d="m 1042.7464,776.19977 -244.00144,-14.9379 71.8104,-48.7418 -179.0898,-86.5103 170.50157,2.9219 -84.31445,-78.6177 315.23822,86.9556"
     id="path4181-9-0-0"
     inkscape:connector-curvature="0" />
  <path
     style="fill:#67d6ff;fill-opacity:1;fill-rule:evenodd;stroke:#000000;stroke-width:15.97097111;stroke-linecap:butt;stroke-linejoin:miter;stroke-miterlimit:4;stroke-dasharray:none;stroke-opacity:1"
     d="m 1132.3087,1081.0467 -281.91498,91.8496 59.29582,-86.9771 -240.57271,-17.8097 193.646,-72.66133 -130.13955,-51.1276 394.36132,-42.3415"
     id="path4181-9-0"
     inkscape:connector-curvature="0" />
  <path
     style="fill:#67d6ff;fill-opacity:1;fill-rule:evenodd;stroke:#000000;stroke-width:13.85109997;stroke-linecap:butt;stroke-linejoin:miter;stroke-miterlimit:4;stroke-dasharray:none;stroke-opacity:1"
     d="m 1135.657,1436.3526 -256.60624,16.6366 68.50206,-60.3495 -198.31883,-66.6275 178.31673,-19.4691 -98.37134,-70.9078 340.45852,49.1108"
     id="path4181-9"
     inkscape:connector-curvature="0" />
  <path
     style="fill:#67d6ff;fill-opacity:1;fill-rule:evenodd;stroke:#000000;stroke-width:10;stroke-linecap:butt;stroke-linejoin:miter;stroke-miterlimit:4;stroke-dasharray:none;stroke-opacity:1"
     d="m 1906.5778,2330.2409 c 19.4506,2.2542 45.3557,3.9822 68.2637,2.2279 83.8396,-6.4206 162.0327,-22.847 207.5373,-37.8977 91.0092,-30.1014 190.8718,-69.1056 242.9631,-151.279 52.0913,-82.1734 67.2882,-228.708 80.9877,-342.2876 13.6995,-113.5796 -15.0865,-183.6644 -10.6965,-337.7034 4.39,-154.039 44.317,-333.8366 35.1456,-499.67883 -9.1714,-165.8422 -18.7064,-345.22 -90.1561,-487.4542 -71.4497,-142.2342 -142.6772,-274.9353 -299.5017,-340.75963 -156.8245,-65.824307 -393.2005,-35.26139 -573.0261,22.92105 -179.8256,58.18248 -392.2931,178.94598 -478.2858,310.19818 -85.9927,131.2522 -91.39808,253.2847 -70.2913,356.0403 21.1068,102.7556 69.6633,201.06833 91.6842,314.78233 22.0209,113.714 29.3764,256.4613 21.393,371.3209 -7.9833,114.8596 -21.67,194.9027 4.5842,304.086 26.2542,109.1833 109.375,220.5019 187.9526,307.1419 78.5776,86.64 194.7666,141.8736 301.0298,168.0877 44.979,11.0959 82.4998,18.8865 143.9149,27.2282"
     id="path3346"
     inkscape:connector-curvature="0"
     sodipodi:nodetypes="csszzzzzzzzzzzzzsc" />
  <path
     style="fill:#67d6ff;fill-opacity:1;fill-rule:evenodd;stroke:#000000;stroke-width:10;stroke-linecap:butt;stroke-linejoin:miter;stroke-miterlimit:4;stroke-dasharray:none;stroke-opacity:1"
     d="m 1764.4517,2234.2123 c 0,0 6.945,105.2516 14.5167,157.3911 6.2402,42.971 18.4485,81.9731 48.1342,116.1333 29.1087,33.4962 74.4619,31.5537 81.7517,-10.6964 5.6832,-32.9383 8.0564,-66.7202 6.1123,-100.0886 -3.2531,-55.8373 -25.2131,-168.0877 -25.2131,-168.0877"
     id="path4152"
     inkscape:connector-curvature="0"
     sodipodi:nodetypes="cssssc" />
  <path
     style="fill:#000000;fill-opacity:1;fill-rule:evenodd;stroke:#000000;stroke-width:10;stroke-linecap:butt;stroke-linejoin:miter;stroke-miterlimit:4;stroke-dasharray:none;stroke-opacity:1"
     d="m 2619.8914,369.73377 c 0,0 22.701,-4.7348 34.8272,-1.3858 15.9586,4.4074 25.6338,12.886 33.7468,27.318 7.9638,14.1665 11.1098,27.4398 7.7489,43.3401 -2.1824,10.3249 -7.0526,24.1669 -14.8154,32.3715 -7.7628,8.2047 -19.1822,12.3001 -19.1822,12.3001"
     id="path4158"
     inkscape:connector-curvature="0"
     sodipodi:nodetypes="cssssc" />
  <path
     style="fill:#c7cdcb;fill-opacity:1;fill-rule:evenodd;stroke:#000000;stroke-width:5;stroke-linecap:butt;stroke-linejoin:miter;stroke-miterlimit:4;stroke-dasharray:none;stroke-opacity:1"
     d="m 2480.7344,754.65867 c 5.6204,24.3022 12.5588,44.7184 19.1009,64.943 5.1734,15.9933 27.9897,28.0756 44.314,24.0671 18.6243,-4.5732 34.6533,-28.9817 32.0895,-47.7522 -3.0997,-22.6937 -7.3343,-46.4003 -16.4268,-67.2351 -7.8597,-18.01 -48.8982,-20.2469 -50.4263,-22.539 -1.528,-2.2921 -32.8832,30.2176 -28.6513,48.5162 z"
     id="path4164"
     inkscape:connector-curvature="0"
     sodipodi:nodetypes="sssssss" />
  <path
     style="fill:#edf1cb;fill-opacity:1;fill-rule:evenodd;stroke:#000000;stroke-width:5;stroke-linecap:butt;stroke-linejoin:miter;stroke-miterlimit:4;stroke-dasharray:none;stroke-opacity:1"
     d="m 2423.8138,652.27807 c 40.9678,-17.257 86.0327,-33.6354 129.886,-46.2242 19.2223,-5.5181 49.1345,-6.1495 66.471,3.8202 17.2477,9.9187 23.6093,28.3212 24.8311,48.5162 0.9061,14.9776 2.3943,31.843 -5.3482,44.6961 -9.3502,15.522 -16.8613,23.2616 -34.3816,27.8873 -18.873,4.9827 -57.0729,-0.6546 -80.6057,4.9662 -20.7712,4.9611 -44.3513,27.6874 -65.325,31.7074 -23.5967,4.5228 -54.8966,5.484 -67.6171,-14.8987 -10.5845,-16.9601 -8.0075,-39.5413 -2.2921,-58.4487 5.4099,-17.8965 17.1515,-34.7639 34.3816,-42.0218 z"
     id="path4162"
     inkscape:connector-curvature="0"
     sodipodi:nodetypes="sssssssssss" />
  <path
     style="fill:#42a9b2;fill-opacity:1;fill-rule:evenodd;stroke:#000000;stroke-width:5;stroke-linecap:butt;stroke-linejoin:miter;stroke-miterlimit:4;stroke-dasharray:none;stroke-opacity:1"
     d="m 2453.6112,602.61577 c 17.8463,-6.8857 39.5769,-13.0649 59.2127,-18.7189 12.5795,-3.6222 27.7487,2.968 30.9434,15.6627 4.1717,16.577 -7.1937,38.1626 -19.1009,51.9544 -10.5557,12.2263 -30.6446,21.1956 -46.6061,18.7189 -16.5149,-2.5626 -26.4669,-6.4749 -38.2017,-29.7974 -6.2558,-12.4332 -9.682,-28.7778 13.7526,-37.8197 z"
     id="path4160"
     inkscape:connector-curvature="0"
     sodipodi:nodetypes="sssssss" />
  <path
     style="fill:#67d6ff;fill-opacity:1;fill-rule:evenodd;stroke:#000000;stroke-width:10;stroke-linecap:butt;stroke-linejoin:miter;stroke-miterlimit:4;stroke-dasharray:none;stroke-opacity:1"
     d="m 1589.4029,293.65057 c 0,0 -45.666,-112.37161 -72.3941,-166.39834 -6.7381,-13.61997 -23.7537,-17.94326 -38.8983,-19.18697 -25.8032,-2.11903 -46.1427,-0.64011 -68.0721,4.05986 -27.0836,5.80463 -28.9185,40.37678 -21.6101,60.50847 20.9917,57.82408 66.9915,167.47878 66.9915,167.47878"
     id="path4166"
     inkscape:connector-curvature="0"
     sodipodi:nodetypes="cssssc" />
  <path
     style="color:#000000;font-style:normal;font-variant:normal;font-weight:normal;font-stretch:normal;font-size:medium;line-height:normal;font-family:sans-serif;text-indent:0;text-align:start;text-decoration:none;text-decoration-line:none;text-decoration-style:solid;text-decoration-color:#000000;letter-spacing:normal;word-spacing:normal;text-transform:none;direction:ltr;block-progression:tb;writing-mode:lr-tb;baseline-shift:baseline;text-anchor:start;white-space:normal;clip-rule:nonzero;display:inline;overflow:visible;visibility:visible;opacity:1;isolation:auto;mix-blend-mode:normal;color-interpolation:sRGB;color-interpolation-filters:linearRGB;solid-color:#000000;solid-opacity:1;fill:#000000;fill-opacity:1;fill-rule:evenodd;stroke:none;stroke-width:10;stroke-linecap:butt;stroke-linejoin:miter;stroke-miterlimit:4;stroke-dasharray:none;stroke-dashoffset:0;stroke-opacity:1;color-rendering:auto;image-rendering:auto;shape-rendering:auto;text-rendering:auto;enable-background:accumulate"
     d="m 1473.7841,165.9453 c -3.4014,-8.33623 -12.6025,-3.77256 -9.7206,3.82299 22.3584,58.92638 31.2534,80.29918 50.0934,125.57068 3.325,7.9898 12.5261,2.7861 9.7138,-4.4626 -17.0698,-43.9974 -31.9492,-80.4792 -50.0866,-124.93107 z"
     id="path4168"
     inkscape:connector-curvature="0"
     sodipodi:nodetypes="sssss" />
  <path
     style="fill:none;fill-rule:evenodd;stroke:#000000;stroke-width:10;stroke-linecap:butt;stroke-linejoin:miter;stroke-miterlimit:4;stroke-dasharray:none;stroke-opacity:1"
     d="m 1706.0978,1106.1929 c 0,0 26.4654,163.8072 42.1398,216.1017 15.6744,52.2945 69.3499,87.5868 74.5551,-2.161 5.2052,-89.7478 -22.6907,-226.9068 -22.6907,-226.9068"
     id="path4148"
     inkscape:connector-curvature="0"
     sodipodi:nodetypes="czzc" />
  <path
     style="fill:#ffffff;fill-opacity:1;fill-rule:evenodd;stroke:#000000;stroke-width:10;stroke-linecap:butt;stroke-linejoin:miter;stroke-miterlimit:4;stroke-dasharray:none;stroke-opacity:1"
     d="m 2329.4309,612.91377 c -2.0043,-64.5332 -57.7542,-189.628 -125.5121,-241.4774 -56.9496,-43.5787 -129.1551,-53.1441 -192.1574,-47.2805 -77.0083,7.1671 -170.2139,43.4673 -225.7373,111.6457 -56.2809,69.1083 -82.8773,163.3107 -88.6906,239.5195 -5.7672,75.6037 15.209,153.9207 79.0187,214.5074 47.7327,45.3217 142.7804,84.6917 221.3626,83.7129 85.37,-1.0633 206.2809,-48.5117 260.7885,-130.8916 54.5077,-82.3798 73.5781,-144.4005 70.9276,-229.736 z"
     id="path4166-1"
     inkscape:connector-curvature="0"
     sodipodi:nodetypes="sssssssss" />
  <path
     style="fill:#000000;fill-opacity:1;fill-rule:evenodd;stroke:#000000;stroke-width:1.60715747;stroke-linecap:butt;stroke-linejoin:miter;stroke-miterlimit:4;stroke-dasharray:none;stroke-opacity:1"
     d="m 2197.0866,601.49577 c -0.3439,-9.7138 -8.7643,-31.0269 -20.3912,-38.8316 -9.7724,-6.5597 -23.3086,-8.7579 -34.1195,-7.8754 -13.2143,1.0789 -29.208,7.8744 -38.7356,18.137 -9.6576,10.4025 -13.2664,18.6611 -14.264,30.1325 -0.9896,11.3803 2.6098,28.3263 11.4582,36.682 7.7503,7.3188 28.3208,15.8045 41.8051,15.6572 14.6491,-0.16 32.1826,-5.2994 41.5359,-17.6997 9.3532,-12.4003 13.1659,-23.3568 12.7111,-36.202 z"
     id="path4166-1-4"
     inkscape:connector-curvature="0"
     sodipodi:nodetypes="sssssssss" />
  <path
     style="fill:#67d6ff;fill-opacity:1;fill-rule:evenodd;stroke:#000000;stroke-width:10;stroke-linecap:butt;stroke-linejoin:miter;stroke-miterlimit:4;stroke-dasharray:none;stroke-opacity:1"
     d="m 461.35202,1888.4811 75.63559,-105.8898 50.7839,100.4872"
     id="path4177"
     inkscape:connector-curvature="0" />
  <path
     sodipodi:nodetypes="aaaaaaaaaaaaaaaaaaaaaaacaaaaaacaaaaaaacaa"
     inkscape:connector-curvature="0"
     id="path4307"
     d="m 1560.2291,2226.6802 c -30.2181,38.868 -97.8855,-14.2069 -144.7881,-29.1737 -48.0777,-15.3418 -89.7337,-47.8905 -138.3051,-61.589 -39.8584,-11.2412 -81.7709,-15.4963 -123.178,-16.2076 -44.863,-0.7707 -89.6922,5.7821 -133.983,12.9661 -47.77918,7.7498 -93.88008,24.0001 -141.54661,32.4152 -51.47207,9.087 -103.39883,16.6757 -155.59322,19.4492 -59.35405,3.1539 -118.91522,-0.3762 -178.2839,-3.2415 -73.61453,-3.5529 -147.6013,-5.9472 -220.42372,-17.2882 -54.46936,-8.4828 -111.15088,-14.2729 -160.99577,-37.8177 -31.1347,-14.7068 -59.06573,-37.0917 -82.118638,-62.6695 -26.83927,-29.7789 -49.87229,-64.6567 -62.669491,-102.6483 -11.325894,-33.6236 -16.959464,-70.9478 -10.805085,-105.8899 6.314952,-35.8537 24.909946,-69.8106 47.542376,-98.3262 22.45007,-28.2859 52.113198,-51.6582 84.279658,-68.0721 28.24999,-14.4154 60.34572,-21.1406 91.84322,-24.8517 36.14315,-4.2585 72.92266,-0.418 109.13135,3.2416 35.64216,3.6023 70.25047,14.7387 105.88983,18.3686 34.41511,3.5052 69.4768,8.0877 103.72882,3.2415 35.97599,-5.0901 70.8602,-18.0091 103.72881,-33.4957 32.08579,-15.1178 61.32501,-35.9617 89.6822,-57.267 34.48354,-25.9081 65.91294,-55.719 97.24577,-85.3602 19.4269,-18.378 38.44643,-37.2557 56.18644,-57.2669 16.82848,-18.983 47.54238,-59.428 47.54238,-59.428 0,0 -18.453,54.73 -30.25425,81.0382 -8.83611,19.6981 -20.00006,38.2684 -30.25424,57.2669 -15.23673,28.2299 -29.02167,57.3553 -46.46186,84.2797 -17.40745,26.8739 -36.99042,52.3874 -57.80721,76.7161 -21.19623,24.7722 -44.97428,47.2235 -68.07203,70.233 -23.18954,23.1009 -47.67844,44.8765 -70.7733,68.0721 -15.09843,15.1643 -44.30085,46.4618 -44.30085,46.4618 0,0 81.28894,-21.5825 119.93644,-37.8178 33.87006,-14.2284 65.37385,-33.5939 97.24576,-51.8644 35.20939,-20.1837 70.32683,-40.6981 103.72882,-63.75 26.20682,-18.0862 53.10052,-35.8513 75.63562,-58.3474 19.98638,-19.9518 36.45738,-43.324 51.86438,-66.9916 19.4301,-29.8478 37.9002,-60.8013 50.7839,-94.0042 11.8185,-30.4578 18.2994,-62.8758 23.7712,-95.0847 11.8731,-69.8889 19.4491,-211.7797 19.4491,-211.7797 0,0 110.8968,355.3422 181.5254,527.2881 70.1444,170.7671 353.1845,353.4482 239.8729,499.1949 z"
     style="fill:#67d6ff;fill-opacity:1;fill-rule:evenodd;stroke:#000000;stroke-width:10;stroke-linecap:butt;stroke-linejoin:miter;stroke-miterlimit:4;stroke-dasharray:none;stroke-opacity:1" />
  <path
     sodipodi:nodetypes="ccc"
     inkscape:connector-curvature="0"
     id="path4309"
     d="m 653.18067,1866.8484 31.83661,-152.3292 87.30206,98.86"
     style="fill:#67d6ff;fill-opacity:1;fill-rule:evenodd;stroke:#000000;stroke-width:10;stroke-linecap:butt;stroke-linejoin:miter;stroke-miterlimit:4;stroke-dasharray:none;stroke-opacity:1" />
  <path
     sodipodi:nodetypes="ccccccc"
     inkscape:connector-curvature="0"
     id="path4311"
     d="m 897.46169,1744.0525 -127.08425,-100.8468 65.91102,0 -75.63559,-130.7416 105.88983,74.5551 -19.44915,-85.3601 147.62517,171.8981"
     style="fill:#67d6ff;fill-opacity:1;fill-rule:evenodd;stroke:#000000;stroke-width:10;stroke-linecap:butt;stroke-linejoin:miter;stroke-miterlimit:4;stroke-dasharray:none;stroke-opacity:1" />
  <path
     sodipodi:nodetypes="caaaaaaaaaaac"
     inkscape:connector-curvature="0"
     id="path4313"
     d="m 1152.8774,1146.1718 c 0,0 -15.4891,120.3449 -23.7712,180.4449 -6.9048,50.1056 -6.7993,101.8286 -21.6101,150.1907 -11.6037,37.8898 -31.6522,72.8858 -51.8644,106.9703 -18.0457,30.4309 -36.8079,61.1902 -61.58898,86.4407 -26.6914,27.197 -60.0583,47.0524 -91.84324,68.072 -33.60922,22.226 -68.59022,42.429 -104.25184,61.186 -38.8221,20.4193 -78.01388,40.6526 -119.18944,55.7746 -35.43499,13.0138 -71.95753,23.9881 -109.25699,29.7973 -47.10058,7.3357 -95.33078,9.5575 -142.87452,6.1123 -29.99066,-2.1732 -63.18528,-0.7829 -88.62804,-16.8088 -9.09419,-5.7282 -20.35825,-15.303 -19.10087,-25.9771 1.01476,-8.6145 19.8649,-16.8088 19.8649,-16.8088"
     style="fill:none;fill-rule:evenodd;stroke:#000000;stroke-width:10;stroke-linecap:butt;stroke-linejoin:miter;stroke-miterlimit:4;stroke-dasharray:none;stroke-opacity:1" />
  <path
     sodipodi:nodetypes="ssssssss"
     inkscape:connector-curvature="0"
     id="path4315"
     d="m 1807.9581,103.6373 c 8e-4,-13.421517 -1.0498,-21.899667 -7.2602,-38.231447 -5.4749,-14.39773 -15.8809,-24.72132 -24.9545,-35.61372 -13.2893,-15.95312 -23.1572,-24.4138496 -33.6905,-1.28838 -11.7176,25.72555 -13.5927,35.50701 -17.2169,55.16023 -2.3431,12.70602 -3.8019,22.236427 -3.8728,32.435597 -0.1064,15.28477 30.2313,40.29901 47.6863,36.90857 17.4551,-3.39044 39.3077,-34.08571 39.3086,-49.37085 z"
     style="fill:#67d6ff;fill-opacity:1;fill-rule:evenodd;stroke:#000000;stroke-width:5;stroke-linecap:butt;stroke-linejoin:miter;stroke-miterlimit:4;stroke-dasharray:none;stroke-opacity:1" />
  <path
     sodipodi:nodetypes="csssssc"
     inkscape:connector-curvature="0"
     id="path4317"
     d="m 2329.5512,283.92597 c 0,0 60.1626,-30.7178 92.9237,-32.4153 40.6558,-2.1065 84.3028,6.5662 118.8559,28.0933 38.006,23.6783 64.019,64.363 85.3602,103.7288 19.4357,35.851 31.0876,76.3078 36.7373,116.6949 5.5406,39.6077 13.6768,83.6977 -3.2415,119.9364 -15.8668,33.9865 -163.1568,105.8898 -163.1568,105.8898"
     style="fill:#ffffff;fill-opacity:1;fill-rule:evenodd;stroke:#000000;stroke-width:10;stroke-linecap:butt;stroke-linejoin:miter;stroke-miterlimit:4;stroke-dasharray:none;stroke-opacity:1" />
  <path
     sodipodi:nodetypes="csssc"
     inkscape:connector-curvature="0"
     id="path4319"
     d="m 2289.3437,2250.257 c 0,0 17.9577,44.953 36.6737,74.8754 16.2357,25.9571 44.3286,56.8532 67.235,77.1675 45.8502,40.6617 81.0913,19.891 60.3588,-34.3815 -21.9273,-57.4002 -81.7517,-158.9193 -81.7517,-158.9193"
     style="fill:#67d6ff;fill-opacity:1;fill-rule:evenodd;stroke:#000000;stroke-width:10;stroke-linecap:butt;stroke-linejoin:miter;stroke-miterlimit:4;stroke-dasharray:none;stroke-opacity:1" />
  <path
     sodipodi:nodetypes="czszzc"
     inkscape:connector-curvature="0"
     id="path4321"
     d="m 2527.994,1116.087 c 0,0 56.2318,62.269 79.4333,100.6998 23.2014,38.4308 44.9313,76.2336 54.9205,122.0975 15.7378,72.2579 -21.433,62.9298 -44.3009,46.0798 -22.8679,-16.85 -48.8891,-48.7733 -66.9915,-72.394 -18.1024,-23.6207 -36.5677,-61.5123 -36.5677,-61.5123"
     style="fill:#67d6ff;fill-opacity:1;fill-rule:evenodd;stroke:#000000;stroke-width:10;stroke-linecap:butt;stroke-linejoin:miter;stroke-miterlimit:4;stroke-dasharray:none;stroke-opacity:1" />
  <path
     inkscape:connector-curvature="0"
     id="path4323"
     d="m 1484.1062,230.54907 -65.8849,-131.810317 47.1131,22.746687 -8.9436,-119.5565366 49.9599,89.8358096 15.5567,-67.7275 49.8226,190.722057"
     style="fill:#67d6ff;fill-opacity:1;fill-rule:evenodd;stroke:#000000;stroke-width:7.93750048;stroke-linecap:butt;stroke-linejoin:miter;stroke-miterlimit:4;stroke-dasharray:none;stroke-opacity:1" />
  <path
     inkscape:connector-curvature="0"
     id="path4325"
     d="m 1263.2757,343.61567 -106.0155,-141.8328 60.5651,16.8563 -36.0646,-139.480617 78.2343,95.588817 3.9587,-83.410867 99.5795,214.925867"
     style="fill:#67d6ff;fill-opacity:1;fill-rule:evenodd;stroke:#000000;stroke-width:9.53817368;stroke-linecap:butt;stroke-linejoin:miter;stroke-miterlimit:4;stroke-dasharray:none;stroke-opacity:1" />
  <path
     inkscape:connector-curvature="0"
     id="path4327"
     d="m 1089.8257,504.87977 -179.16493,-105.6445 73.26995,-9.1842 -102.2981,-134.7997 128.10108,68.1245 -33.51478,-92.1808 205.31908,187.7674"
     style="fill:#67d6ff;fill-opacity:1;fill-rule:evenodd;stroke:#000000;stroke-width:11.20349979;stroke-linecap:butt;stroke-linejoin:miter;stroke-miterlimit:4;stroke-dasharray:none;stroke-opacity:1" />
  <path
     inkscape:connector-curvature="0"
     id="path4329"
     d="m 1042.7464,776.19977 -244.00144,-14.9379 71.8104,-48.7418 -179.0898,-86.5103 170.50157,2.9219 -84.31445,-78.6177 315.23822,86.9556"
     style="fill:#67d6ff;fill-opacity:1;fill-rule:evenodd;stroke:#000000;stroke-width:13.16773033;stroke-linecap:butt;stroke-linejoin:miter;stroke-miterlimit:4;stroke-dasharray:none;stroke-opacity:1" />
  <path
     inkscape:connector-curvature="0"
     id="path4331"
     d="m 1132.3087,1081.0467 -281.91498,91.8496 59.29582,-86.9771 -240.57271,-17.8097 193.646,-72.66133 -130.13955,-51.1276 394.36132,-42.3415"
     style="fill:#67d6ff;fill-opacity:1;fill-rule:evenodd;stroke:#000000;stroke-width:15.97097111;stroke-linecap:butt;stroke-linejoin:miter;stroke-miterlimit:4;stroke-dasharray:none;stroke-opacity:1" />
  <path
     inkscape:connector-curvature="0"
     id="path4333"
     d="m 1135.657,1436.3526 -256.60624,16.6366 68.50206,-60.3495 -198.31883,-66.6275 178.31673,-19.4691 -98.37134,-70.9078 340.45852,49.1108"
     style="fill:#67d6ff;fill-opacity:1;fill-rule:evenodd;stroke:#000000;stroke-width:13.85109997;stroke-linecap:butt;stroke-linejoin:miter;stroke-miterlimit:4;stroke-dasharray:none;stroke-opacity:1" />
  <path
     sodipodi:nodetypes="csszzzzzzzzzzzzzsc"
     inkscape:connector-curvature="0"
     id="path4335"
     d="m 1906.5778,2330.2409 c 19.4506,2.2542 45.3557,3.9822 68.2637,2.2279 83.8396,-6.4206 162.0327,-22.847 207.5373,-37.8977 91.0092,-30.1014 190.8718,-69.1056 242.9631,-151.279 52.0913,-82.1734 67.2882,-228.708 80.9877,-342.2876 13.6995,-113.5796 -15.0865,-183.6644 -10.6965,-337.7034 4.39,-154.039 44.317,-333.8366 35.1456,-499.67883 -9.1714,-165.8422 -18.7064,-345.22 -90.1561,-487.4542 -71.4497,-142.2342 -142.6772,-274.9353 -299.5017,-340.75963 -156.8245,-65.824307 -393.2005,-35.26139 -573.0261,22.92105 -179.8256,58.18248 -392.2931,178.94598 -478.2858,310.19818 -85.9927,131.2522 -91.39808,253.2847 -70.2913,356.0403 21.1068,102.7556 69.6633,201.06833 91.6842,314.78233 22.0209,113.714 29.3764,256.4613 21.393,371.3209 -7.9833,114.8596 -21.67,194.9027 4.5842,304.086 26.2542,109.1833 109.375,220.5019 187.9526,307.1419 78.5776,86.64 194.7666,141.8736 301.0298,168.0877 44.979,11.0959 82.4998,18.8865 143.9149,27.2282"
     style="fill:#67d6ff;fill-opacity:1;fill-rule:evenodd;stroke:#000000;stroke-width:10;stroke-linecap:butt;stroke-linejoin:miter;stroke-miterlimit:4;stroke-dasharray:none;stroke-opacity:1" />
  <path
     sodipodi:nodetypes="cssssc"
     inkscape:connector-curvature="0"
     id="path4337"
     d="m 1764.4517,2234.2123 c 0,0 6.945,105.2516 14.5167,157.3911 6.2402,42.971 18.4485,81.9731 48.1342,116.1333 29.1087,33.4962 74.4619,31.5537 81.7517,-10.6964 5.6832,-32.9383 8.0564,-66.7202 6.1123,-100.0886 -3.2531,-55.8373 -25.2131,-168.0877 -25.2131,-168.0877"
     style="fill:#67d6ff;fill-opacity:1;fill-rule:evenodd;stroke:#000000;stroke-width:10;stroke-linecap:butt;stroke-linejoin:miter;stroke-miterlimit:4;stroke-dasharray:none;stroke-opacity:1" />
  <path
     sodipodi:nodetypes="cssssc"
     inkscape:connector-curvature="0"
     id="path4339"
     d="m 2619.8914,369.73377 c 0,0 22.701,-4.7348 34.8272,-1.3858 15.9586,4.4074 25.6338,12.886 33.7468,27.318 7.9638,14.1665 11.1098,27.4398 7.7489,43.3401 -2.1824,10.3249 -7.0526,24.1669 -14.8154,32.3715 -7.7628,8.2047 -19.1822,12.3001 -19.1822,12.3001"
     style="fill:#000000;fill-opacity:1;fill-rule:evenodd;stroke:#000000;stroke-width:10;stroke-linecap:butt;stroke-linejoin:miter;stroke-miterlimit:4;stroke-dasharray:none;stroke-opacity:1" />
  <path
     sodipodi:nodetypes="sssssss"
     inkscape:connector-curvature="0"
     id="path4341"
     d="m 2480.7344,754.65867 c 5.6204,24.3022 12.5588,44.7184 19.1009,64.943 5.1734,15.9933 27.9897,28.0756 44.314,24.0671 18.6243,-4.5732 34.6533,-28.9817 32.0895,-47.7522 -3.0997,-22.6937 -7.3343,-46.4003 -16.4268,-67.2351 -7.8597,-18.01 -48.8982,-20.2469 -50.4263,-22.539 -1.528,-2.2921 -32.8832,30.2176 -28.6513,48.5162 z"
     style="fill:#c7cdcb;fill-opacity:1;fill-rule:evenodd;stroke:#000000;stroke-width:5;stroke-linecap:butt;stroke-linejoin:miter;stroke-miterlimit:4;stroke-dasharray:none;stroke-opacity:1" />
  <path
     sodipodi:nodetypes="sssssssssss"
     inkscape:connector-curvature="0"
     id="path4343"
     d="m 2423.8138,652.27807 c 40.9678,-17.257 86.0327,-33.6354 129.886,-46.2242 19.2223,-5.5181 49.1345,-6.1495 66.471,3.8202 17.2477,9.9187 23.6093,28.3212 24.8311,48.5162 0.9061,14.9776 2.3943,31.843 -5.3482,44.6961 -9.3502,15.522 -16.8613,23.2616 -34.3816,27.8873 -18.873,4.9827 -57.0729,-0.6546 -80.6057,4.9662 -20.7712,4.9611 -44.3513,27.6874 -65.325,31.7074 -23.5967,4.5228 -54.8966,5.484 -67.6171,-14.8987 -10.5845,-16.9601 -8.0075,-39.5413 -2.2921,-58.4487 5.4099,-17.8965 17.1515,-34.7639 34.3816,-42.0218 z"
     style="fill:#edf1cb;fill-opacity:1;fill-rule:evenodd;stroke:#000000;stroke-width:5;stroke-linecap:butt;stroke-linejoin:miter;stroke-miterlimit:4;stroke-dasharray:none;stroke-opacity:1" />
  <path
     sodipodi:nodetypes="sssssss"
     inkscape:connector-curvature="0"
     id="path4345"
     d="m 2453.6112,602.61577 c 17.8463,-6.8857 39.5769,-13.0649 59.2127,-18.7189 12.5795,-3.6222 27.7487,2.968 30.9434,15.6627 4.1717,16.577 -7.1937,38.1626 -19.1009,51.9544 -10.5557,12.2263 -30.6446,21.1956 -46.6061,18.7189 -16.5149,-2.5626 -26.4669,-6.4749 -38.2017,-29.7974 -6.2558,-12.4332 -9.682,-28.7778 13.7526,-37.8197 z"
     style="fill:#42a9b2;fill-opacity:1;fill-rule:evenodd;stroke:#000000;stroke-width:5;stroke-linecap:butt;stroke-linejoin:miter;stroke-miterlimit:4;stroke-dasharray:none;stroke-opacity:1" />
  <path
     sodipodi:nodetypes="cssssc"
     inkscape:connector-curvature="0"
     id="path4347"
     d="m 1589.4029,293.65057 c 0,0 -45.666,-112.37161 -72.3941,-166.39834 -6.7381,-13.61997 -23.7537,-17.94326 -38.8983,-19.18697 -25.8032,-2.11903 -46.1427,-0.64011 -68.0721,4.05986 -27.0836,5.80463 -28.9185,40.37678 -21.6101,60.50847 20.9917,57.82408 66.9915,167.47878 66.9915,167.47878"
     style="fill:#67d6ff;fill-opacity:1;fill-rule:evenodd;stroke:#000000;stroke-width:10;stroke-linecap:butt;stroke-linejoin:miter;stroke-miterlimit:4;stroke-dasharray:none;stroke-opacity:1" />
  <path
     sodipodi:nodetypes="sssss"
     inkscape:connector-curvature="0"
     id="path4349"
     d="m 1473.7841,165.9453 c -3.4014,-8.33623 -12.6025,-3.77256 -9.7206,3.82299 22.3584,58.92638 31.2534,80.29918 50.0934,125.57068 3.325,7.9898 12.5261,2.7861 9.7138,-4.4626 -17.0698,-43.9974 -31.9492,-80.4792 -50.0866,-124.93107 z"
     style="color:#000000;font-style:normal;font-variant:normal;font-weight:normal;font-stretch:normal;font-size:medium;line-height:normal;font-family:sans-serif;text-indent:0;text-align:start;text-decoration:none;text-decoration-line:none;text-decoration-style:solid;text-decoration-color:#000000;letter-spacing:normal;word-spacing:normal;text-transform:none;direction:ltr;block-progression:tb;writing-mode:lr-tb;baseline-shift:baseline;text-anchor:start;white-space:normal;clip-rule:nonzero;display:inline;overflow:visible;visibility:visible;opacity:1;isolation:auto;mix-blend-mode:normal;color-interpolation:sRGB;color-interpolation-filters:linearRGB;solid-color:#000000;solid-opacity:1;fill:#000000;fill-opacity:1;fill-rule:evenodd;stroke:none;stroke-width:10;stroke-linecap:butt;stroke-linejoin:miter;stroke-miterlimit:4;stroke-dasharray:none;stroke-dashoffset:0;stroke-opacity:1;color-rendering:auto;image-rendering:auto;shape-rendering:auto;text-rendering:auto;enable-background:accumulate" />
  <path
     sodipodi:nodetypes="czzc"
     inkscape:connector-curvature="0"
     id="path4351"
     d="m 1706.0978,1106.1929 c 0,0 26.4654,163.8072 42.1398,216.1017 15.6744,52.2945 69.3499,87.5868 74.5551,-2.161 5.2052,-89.7478 -22.6907,-226.9068 -22.6907,-226.9068"
     style="fill:none;fill-rule:evenodd;stroke:#000000;stroke-width:10;stroke-linecap:butt;stroke-linejoin:miter;stroke-miterlimit:4;stroke-dasharray:none;stroke-opacity:1" />
  <path
     sodipodi:nodetypes="sssssssss"
     inkscape:connector-curvature="0"
     id="path4353"
     d="m 2329.4309,612.91377 c -2.0043,-64.5332 -57.7542,-189.628 -125.5121,-241.4774 -56.9496,-43.5787 -129.1551,-53.1441 -192.1574,-47.2805 -77.0083,7.1671 -170.2139,43.4673 -225.7373,111.6457 -56.2809,69.1083 -82.8773,163.3107 -88.6906,239.5195 -5.7672,75.6037 15.209,153.9207 79.0187,214.5074 47.7327,45.3217 142.7804,84.6917 221.3626,83.7129 85.37,-1.0633 206.2809,-48.5117 260.7885,-130.8916 54.5077,-82.3798 73.5781,-144.4005 70.9276,-229.736 z"
     style="fill:#ffffff;fill-opacity:1;fill-rule:evenodd;stroke:#000000;stroke-width:10;stroke-linecap:butt;stroke-linejoin:miter;stroke-miterlimit:4;stroke-dasharray:none;stroke-opacity:1" />
  <path
     sodipodi:nodetypes="sssssssss"
     inkscape:connector-curvature="0"
     id="path4355"
     d="m 2197.0866,601.49577 c -0.3439,-9.7138 -8.7643,-31.0269 -20.3912,-38.8316 -9.7724,-6.5597 -23.3086,-8.7579 -34.1195,-7.8754 -13.2143,1.0789 -29.208,7.8744 -38.7356,18.137 -9.6576,10.4025 -13.2664,18.6611 -14.264,30.1325 -0.9896,11.3803 2.6098,28.3263 11.4582,36.682 7.7503,7.3188 28.3208,15.8045 41.8051,15.6572 14.6491,-0.16 32.1826,-5.2994 41.5359,-17.6997 9.3532,-12.4003 13.1659,-23.3568 12.7111,-36.202 z"
     style="fill:#000000;fill-opacity:1;fill-rule:evenodd;stroke:#000000;stroke-width:1.60715747;stroke-linecap:butt;stroke-linejoin:miter;stroke-miterlimit:4;stroke-dasharray:none;stroke-opacity:1" />
  <path
     inkscape:connector-curvature="0"
     id="path4357"
     d="m 461.35202,1888.4811 75.63559,-105.8898 50.7839,100.4872"
     style="fill:#67d6ff;fill-opacity:1;fill-rule:evenodd;stroke:#000000;stroke-width:10;stroke-linecap:butt;stroke-linejoin:miter;stroke-miterlimit:4;stroke-dasharray:none;stroke-opacity:1" />
</svg>
